<?xml version="1.0" standalone="no"?>
<!DOCTYPE svg PUBLIC "-//W3C//DTD SVG 20010904//EN"
 "http://www.w3.org/TR/2001/REC-SVG-20010904/DTD/svg10.dtd">
<svg version="1.0" xmlns="http://www.w3.org/2000/svg"
 width="512.000000pt" height="512.000000pt" viewBox="0 0 512.000000 512.000000"
 preserveAspectRatio="xMidYMid meet">

<g transform="translate(0.000000,512.000000) scale(0.100000,-0.100000)"
fill="#000000" stroke="none">
<path d="M1862 3910 c-28 -26 -32 -44 -35 -165 l-2 -100 -125 -1 c-69 0 -141
-3 -161 -7 -89 -18 -181 -93 -226 -186 -26 -53 -28 -65 -31 -213 l-4 -158
1151 0 1151 0 0 149 c0 129 -3 157 -22 206 -28 75 -97 146 -173 182 -58 26
-65 27 -202 25 l-143 -3 0 101 c0 109 -14 161 -48 179 -34 18 -79 13 -109 -13
-27 -24 -28 -27 -31 -145 l-4 -121 -416 2 -417 3 -3 115 c-3 109 -4 116 -29
142 -33 35 -88 38 -121 8z"/>
<path d="M1852 2664 c-29 -20 -52 -66 -52 -104 0 -38 23 -84 52 -104 13 -9 43
-16 70 -16 120 0 168 143 73 218 -34 27 -109 30 -143 6z"/>
<path d="M2363 2660 c-68 -41 -68 -157 1 -199 53 -33 108 -28 154 13 34 31 37
39 37 86 0 47 -3 55 -37 86 -31 28 -46 34 -80 34 -25 0 -57 -8 -75 -20z"/>
<path d="M3225 2288 c-142 -27 -286 -138 -350 -271 -96 -201 -60 -421 95 -578
80 -81 158 -122 274 -145 80 -16 92 -16 170 -1 109 22 195 67 271 142 75 74
120 161 141 270 15 76 15 91 2 167 -22 118 -59 190 -143 273 -127 128 -283
177 -460 143z m154 -264 c18 -23 21 -41 21 -118 l0 -92 65 -64 c51 -50 65 -71
65 -94 0 -40 -26 -66 -65 -66 -26 0 -45 14 -118 89 l-87 88 0 122 c0 108 2
123 20 141 29 29 74 26 99 -6z"/>
<path d="M1858 2155 c-86 -48 -70 -191 24 -222 130 -43 222 120 119 211 -28
25 -107 31 -143 11z"/>
</g>
</svg>
